<mxfile host="Electron" modified="2023-09-12T03:11:32.650Z" agent="Mozilla/5.0 (Windows NT 10.0; Win64; x64) AppleWebKit/537.36 (KHTML, like Gecko) draw.io/21.6.8 Chrome/114.0.5735.289 Electron/25.5.0 Safari/537.36" etag="FsoOFVU5X3sCulG9iKUl" version="21.6.8" type="device">
  <diagram name="Page-1" id="5jPxCRWaJmj2TKFP1Krx">
    <mxGraphModel dx="2587" dy="989" grid="1" gridSize="10" guides="1" tooltips="1" connect="1" arrows="1" fold="1" page="1" pageScale="1" pageWidth="1169" pageHeight="827" math="0" shadow="0">
      <root>
        <mxCell id="0" />
        <mxCell id="1" parent="0" />
        <mxCell id="BJzAc4cjyfCp3c0G5clE-67" value="" style="rounded=0;whiteSpace=wrap;html=1;" parent="1" vertex="1">
          <mxGeometry x="-140" y="40" width="1080" height="1310" as="geometry" />
        </mxCell>
        <mxCell id="BJzAc4cjyfCp3c0G5clE-5" value="" style="edgeStyle=orthogonalEdgeStyle;rounded=0;orthogonalLoop=1;jettySize=auto;html=1;" parent="1" source="BJzAc4cjyfCp3c0G5clE-2" target="BJzAc4cjyfCp3c0G5clE-4" edge="1">
          <mxGeometry relative="1" as="geometry" />
        </mxCell>
        <mxCell id="BJzAc4cjyfCp3c0G5clE-2" value="Mulai" style="ellipse;whiteSpace=wrap;html=1;fillColor=#6AA9FC;strokeColor=#6c8ebf;" parent="1" vertex="1">
          <mxGeometry x="340" y="70" width="120" height="50" as="geometry" />
        </mxCell>
        <mxCell id="BJzAc4cjyfCp3c0G5clE-7" value="" style="edgeStyle=orthogonalEdgeStyle;rounded=0;orthogonalLoop=1;jettySize=auto;html=1;" parent="1" source="BJzAc4cjyfCp3c0G5clE-4" target="BJzAc4cjyfCp3c0G5clE-6" edge="1">
          <mxGeometry relative="1" as="geometry" />
        </mxCell>
        <mxCell id="BJzAc4cjyfCp3c0G5clE-4" value="Pembeli memilih barang yang akan di beli" style="whiteSpace=wrap;html=1;fillColor=#dae8fc;strokeColor=#6c8ebf;" parent="1" vertex="1">
          <mxGeometry x="340" y="150" width="120" height="60" as="geometry" />
        </mxCell>
        <mxCell id="BJzAc4cjyfCp3c0G5clE-12" value="" style="edgeStyle=orthogonalEdgeStyle;rounded=0;orthogonalLoop=1;jettySize=auto;html=1;" parent="1" source="BJzAc4cjyfCp3c0G5clE-6" target="BJzAc4cjyfCp3c0G5clE-11" edge="1">
          <mxGeometry relative="1" as="geometry" />
        </mxCell>
        <mxCell id="BJzAc4cjyfCp3c0G5clE-6" value="Pembeli menyerahkan barang ke kasir untuk membayar" style="whiteSpace=wrap;html=1;fillColor=#dae8fc;strokeColor=#6c8ebf;" parent="1" vertex="1">
          <mxGeometry x="340" y="240" width="120" height="60" as="geometry" />
        </mxCell>
        <mxCell id="BJzAc4cjyfCp3c0G5clE-16" style="edgeStyle=orthogonalEdgeStyle;rounded=0;orthogonalLoop=1;jettySize=auto;html=1;" parent="1" source="BJzAc4cjyfCp3c0G5clE-11" target="BJzAc4cjyfCp3c0G5clE-14" edge="1">
          <mxGeometry relative="1" as="geometry">
            <Array as="points">
              <mxPoint x="600" y="390.5" />
            </Array>
          </mxGeometry>
        </mxCell>
        <mxCell id="BJzAc4cjyfCp3c0G5clE-51" style="edgeStyle=orthogonalEdgeStyle;rounded=0;orthogonalLoop=1;jettySize=auto;html=1;" parent="1" source="BJzAc4cjyfCp3c0G5clE-11" target="BJzAc4cjyfCp3c0G5clE-13" edge="1">
          <mxGeometry relative="1" as="geometry">
            <Array as="points">
              <mxPoint x="200" y="390.5" />
            </Array>
          </mxGeometry>
        </mxCell>
        <mxCell id="BJzAc4cjyfCp3c0G5clE-11" value="Apakah pembeli menyerahkan bukti keanggotaan?" style="rhombus;whiteSpace=wrap;html=1;fillColor=#ffe6cc;strokeColor=#d79b00;" parent="1" vertex="1">
          <mxGeometry x="298.75" y="330" width="202.5" height="120" as="geometry" />
        </mxCell>
        <mxCell id="BJzAc4cjyfCp3c0G5clE-18" value="" style="edgeStyle=orthogonalEdgeStyle;rounded=0;orthogonalLoop=1;jettySize=auto;html=1;" parent="1" source="BJzAc4cjyfCp3c0G5clE-13" target="BJzAc4cjyfCp3c0G5clE-17" edge="1">
          <mxGeometry relative="1" as="geometry" />
        </mxCell>
        <mxCell id="BJzAc4cjyfCp3c0G5clE-13" value="Kasir menginput harga anggota" style="shape=parallelogram;perimeter=parallelogramPerimeter;whiteSpace=wrap;html=1;fixedSize=1;fillColor=#fff2cc;strokeColor=#d6b656;" parent="1" vertex="1">
          <mxGeometry x="140" y="446.5" width="120" height="60" as="geometry" />
        </mxCell>
        <mxCell id="BJzAc4cjyfCp3c0G5clE-22" style="edgeStyle=orthogonalEdgeStyle;rounded=0;orthogonalLoop=1;jettySize=auto;html=1;" parent="1" source="BJzAc4cjyfCp3c0G5clE-14" target="BJzAc4cjyfCp3c0G5clE-21" edge="1">
          <mxGeometry relative="1" as="geometry" />
        </mxCell>
        <mxCell id="BJzAc4cjyfCp3c0G5clE-14" value="Kasir menginput harga non anggota" style="shape=parallelogram;perimeter=parallelogramPerimeter;whiteSpace=wrap;html=1;fixedSize=1;fillColor=#fff2cc;strokeColor=#d6b656;" parent="1" vertex="1">
          <mxGeometry x="540" y="446.5" width="120" height="60" as="geometry" />
        </mxCell>
        <mxCell id="BJzAc4cjyfCp3c0G5clE-20" value="" style="edgeStyle=orthogonalEdgeStyle;rounded=0;orthogonalLoop=1;jettySize=auto;html=1;" parent="1" source="BJzAc4cjyfCp3c0G5clE-17" target="BJzAc4cjyfCp3c0G5clE-19" edge="1">
          <mxGeometry relative="1" as="geometry" />
        </mxCell>
        <mxCell id="BJzAc4cjyfCp3c0G5clE-17" value="Sistem memproses total belanja anggota" style="whiteSpace=wrap;html=1;fillColor=#dae8fc;strokeColor=#6c8ebf;" parent="1" vertex="1">
          <mxGeometry x="140" y="540" width="120" height="60" as="geometry" />
        </mxCell>
        <mxCell id="BJzAc4cjyfCp3c0G5clE-34" value="" style="edgeStyle=orthogonalEdgeStyle;rounded=0;orthogonalLoop=1;jettySize=auto;html=1;" parent="1" source="BJzAc4cjyfCp3c0G5clE-19" target="BJzAc4cjyfCp3c0G5clE-33" edge="1">
          <mxGeometry relative="1" as="geometry" />
        </mxCell>
        <mxCell id="BJzAc4cjyfCp3c0G5clE-39" style="edgeStyle=orthogonalEdgeStyle;rounded=0;orthogonalLoop=1;jettySize=auto;html=1;" parent="1" source="BJzAc4cjyfCp3c0G5clE-19" target="BJzAc4cjyfCp3c0G5clE-38" edge="1">
          <mxGeometry relative="1" as="geometry">
            <Array as="points">
              <mxPoint x="200" y="793.5" />
            </Array>
          </mxGeometry>
        </mxCell>
        <mxCell id="BJzAc4cjyfCp3c0G5clE-19" value="Apakah total harga lebih dari Rp 150.000?" style="rhombus;whiteSpace=wrap;html=1;fillColor=#ffe6cc;strokeColor=#d79b00;" parent="1" vertex="1">
          <mxGeometry x="75" y="630" width="250" height="110" as="geometry" />
        </mxCell>
        <mxCell id="BJzAc4cjyfCp3c0G5clE-24" style="edgeStyle=orthogonalEdgeStyle;rounded=0;orthogonalLoop=1;jettySize=auto;html=1;" parent="1" source="BJzAc4cjyfCp3c0G5clE-21" target="BJzAc4cjyfCp3c0G5clE-23" edge="1">
          <mxGeometry relative="1" as="geometry" />
        </mxCell>
        <mxCell id="BJzAc4cjyfCp3c0G5clE-21" value="Sistem memproses total belanja non anggota" style="whiteSpace=wrap;html=1;fillColor=#dae8fc;strokeColor=#6c8ebf;" parent="1" vertex="1">
          <mxGeometry x="540" y="540" width="120" height="60" as="geometry" />
        </mxCell>
        <mxCell id="BJzAc4cjyfCp3c0G5clE-36" value="" style="edgeStyle=orthogonalEdgeStyle;rounded=0;orthogonalLoop=1;jettySize=auto;html=1;" parent="1" source="BJzAc4cjyfCp3c0G5clE-23" target="BJzAc4cjyfCp3c0G5clE-35" edge="1">
          <mxGeometry relative="1" as="geometry" />
        </mxCell>
        <mxCell id="BJzAc4cjyfCp3c0G5clE-41" style="edgeStyle=orthogonalEdgeStyle;rounded=0;orthogonalLoop=1;jettySize=auto;html=1;" parent="1" source="BJzAc4cjyfCp3c0G5clE-23" target="BJzAc4cjyfCp3c0G5clE-38" edge="1">
          <mxGeometry relative="1" as="geometry">
            <Array as="points">
              <mxPoint x="600" y="793.5" />
            </Array>
          </mxGeometry>
        </mxCell>
        <mxCell id="BJzAc4cjyfCp3c0G5clE-23" value="Apakah total harga lebih dari Rp 300.000?" style="rhombus;whiteSpace=wrap;html=1;fillColor=#ffe6cc;strokeColor=#d79b00;" parent="1" vertex="1">
          <mxGeometry x="475" y="630" width="250" height="110" as="geometry" />
        </mxCell>
        <mxCell id="BJzAc4cjyfCp3c0G5clE-25" value="Ya" style="text;html=1;strokeColor=none;fillColor=none;align=center;verticalAlign=middle;whiteSpace=wrap;rounded=0;" parent="1" vertex="1">
          <mxGeometry x="20" y="653.5" width="60" height="30" as="geometry" />
        </mxCell>
        <mxCell id="BJzAc4cjyfCp3c0G5clE-27" value="Tidak" style="text;html=1;strokeColor=none;fillColor=none;align=center;verticalAlign=middle;whiteSpace=wrap;rounded=0;" parent="1" vertex="1">
          <mxGeometry x="525" y="356.5" width="60" height="30" as="geometry" />
        </mxCell>
        <mxCell id="BJzAc4cjyfCp3c0G5clE-40" style="edgeStyle=orthogonalEdgeStyle;rounded=0;orthogonalLoop=1;jettySize=auto;html=1;" parent="1" source="BJzAc4cjyfCp3c0G5clE-33" target="BJzAc4cjyfCp3c0G5clE-38" edge="1">
          <mxGeometry relative="1" as="geometry">
            <Array as="points">
              <mxPoint x="-30" y="793.5" />
            </Array>
          </mxGeometry>
        </mxCell>
        <mxCell id="BJzAc4cjyfCp3c0G5clE-33" value="Pemebeli mendapat diskon sebesar 10%" style="whiteSpace=wrap;html=1;fillColor=#dae8fc;strokeColor=#6c8ebf;" parent="1" vertex="1">
          <mxGeometry x="-90" y="655" width="120" height="60" as="geometry" />
        </mxCell>
        <mxCell id="BJzAc4cjyfCp3c0G5clE-42" style="edgeStyle=orthogonalEdgeStyle;rounded=0;orthogonalLoop=1;jettySize=auto;html=1;" parent="1" source="BJzAc4cjyfCp3c0G5clE-35" target="BJzAc4cjyfCp3c0G5clE-38" edge="1">
          <mxGeometry relative="1" as="geometry">
            <Array as="points">
              <mxPoint x="840" y="793.5" />
            </Array>
          </mxGeometry>
        </mxCell>
        <mxCell id="BJzAc4cjyfCp3c0G5clE-35" value="Pembeli mendapat diskon sebesar 10%" style="whiteSpace=wrap;html=1;fillColor=#dae8fc;strokeColor=#6c8ebf;" parent="1" vertex="1">
          <mxGeometry x="780" y="655" width="120" height="60" as="geometry" />
        </mxCell>
        <mxCell id="BJzAc4cjyfCp3c0G5clE-44" value="" style="edgeStyle=orthogonalEdgeStyle;rounded=0;orthogonalLoop=1;jettySize=auto;html=1;" parent="1" source="BJzAc4cjyfCp3c0G5clE-38" target="BJzAc4cjyfCp3c0G5clE-43" edge="1">
          <mxGeometry relative="1" as="geometry" />
        </mxCell>
        <mxCell id="BJzAc4cjyfCp3c0G5clE-38" value="Sistem menampilkan total bayar" style="shape=parallelogram;perimeter=parallelogramPerimeter;fixedSize=1;whiteSpace=wrap;html=1;fillColor=#fff2cc;strokeColor=#d6b656;" parent="1" vertex="1">
          <mxGeometry x="290" y="760.5" width="220" height="60" as="geometry" />
        </mxCell>
        <mxCell id="BJzAc4cjyfCp3c0G5clE-46" value="" style="edgeStyle=orthogonalEdgeStyle;rounded=0;orthogonalLoop=1;jettySize=auto;html=1;" parent="1" source="BJzAc4cjyfCp3c0G5clE-43" target="BJzAc4cjyfCp3c0G5clE-45" edge="1">
          <mxGeometry relative="1" as="geometry" />
        </mxCell>
        <mxCell id="BJzAc4cjyfCp3c0G5clE-65" style="edgeStyle=orthogonalEdgeStyle;rounded=0;orthogonalLoop=1;jettySize=auto;html=1;" parent="1" source="BJzAc4cjyfCp3c0G5clE-43" target="BJzAc4cjyfCp3c0G5clE-63" edge="1">
          <mxGeometry relative="1" as="geometry">
            <Array as="points">
              <mxPoint x="570" y="898.5" />
              <mxPoint x="570" y="1288.5" />
            </Array>
          </mxGeometry>
        </mxCell>
        <mxCell id="BJzAc4cjyfCp3c0G5clE-43" value="Apakah pembeli menyetujui pembayaran?" style="rhombus;whiteSpace=wrap;html=1;fillColor=#ffe6cc;strokeColor=#d79b00;" parent="1" vertex="1">
          <mxGeometry x="270" y="843.5" width="260" height="110" as="geometry" />
        </mxCell>
        <mxCell id="BJzAc4cjyfCp3c0G5clE-48" value="" style="edgeStyle=orthogonalEdgeStyle;rounded=0;orthogonalLoop=1;jettySize=auto;html=1;" parent="1" source="BJzAc4cjyfCp3c0G5clE-45" target="BJzAc4cjyfCp3c0G5clE-47" edge="1">
          <mxGeometry relative="1" as="geometry" />
        </mxCell>
        <mxCell id="BJzAc4cjyfCp3c0G5clE-45" value="Pembeli membayar total belanja" style="whiteSpace=wrap;html=1;fillColor=#dae8fc;strokeColor=#6c8ebf;" parent="1" vertex="1">
          <mxGeometry x="340" y="984.5" width="120" height="60" as="geometry" />
        </mxCell>
        <mxCell id="BJzAc4cjyfCp3c0G5clE-54" value="" style="edgeStyle=orthogonalEdgeStyle;rounded=0;orthogonalLoop=1;jettySize=auto;html=1;" parent="1" source="BJzAc4cjyfCp3c0G5clE-47" target="BJzAc4cjyfCp3c0G5clE-53" edge="1">
          <mxGeometry relative="1" as="geometry" />
        </mxCell>
        <mxCell id="BJzAc4cjyfCp3c0G5clE-47" value="Print out bukti pembayaran" style="shape=parallelogram;perimeter=parallelogramPerimeter;whiteSpace=wrap;html=1;fixedSize=1;fillColor=#fff2cc;strokeColor=#d6b656;" parent="1" vertex="1">
          <mxGeometry x="340" y="1073.5" width="120" height="60" as="geometry" />
        </mxCell>
        <mxCell id="BJzAc4cjyfCp3c0G5clE-55" style="edgeStyle=orthogonalEdgeStyle;rounded=0;orthogonalLoop=1;jettySize=auto;html=1;" parent="1" source="BJzAc4cjyfCp3c0G5clE-53" edge="1">
          <mxGeometry relative="1" as="geometry">
            <mxPoint x="400" y="1263.5" as="targetPoint" />
          </mxGeometry>
        </mxCell>
        <mxCell id="BJzAc4cjyfCp3c0G5clE-53" value="Pembeli membawa barang belanjaan" style="whiteSpace=wrap;html=1;fillColor=#dae8fc;strokeColor=#6c8ebf;" parent="1" vertex="1">
          <mxGeometry x="340" y="1163.5" width="120" height="60" as="geometry" />
        </mxCell>
        <mxCell id="BJzAc4cjyfCp3c0G5clE-57" value="Ya" style="text;html=1;strokeColor=none;fillColor=none;align=center;verticalAlign=middle;whiteSpace=wrap;rounded=0;" parent="1" vertex="1">
          <mxGeometry x="400" y="953.5" width="60" height="30" as="geometry" />
        </mxCell>
        <mxCell id="BJzAc4cjyfCp3c0G5clE-58" value="Tidak" style="text;html=1;strokeColor=none;fillColor=none;align=center;verticalAlign=middle;whiteSpace=wrap;rounded=0;" parent="1" vertex="1">
          <mxGeometry x="610" y="743.5" width="60" height="30" as="geometry" />
        </mxCell>
        <mxCell id="BJzAc4cjyfCp3c0G5clE-60" value="Tidak" style="text;html=1;strokeColor=none;fillColor=none;align=center;verticalAlign=middle;whiteSpace=wrap;rounded=0;" parent="1" vertex="1">
          <mxGeometry x="210" y="743.5" width="60" height="30" as="geometry" />
        </mxCell>
        <mxCell id="BJzAc4cjyfCp3c0G5clE-62" value="Ya" style="text;html=1;strokeColor=none;fillColor=none;align=center;verticalAlign=middle;whiteSpace=wrap;rounded=0;" parent="1" vertex="1">
          <mxGeometry x="730" y="653.5" width="60" height="30" as="geometry" />
        </mxCell>
        <mxCell id="BJzAc4cjyfCp3c0G5clE-63" value="Selesai" style="ellipse;whiteSpace=wrap;html=1;fillColor=#6AA9FC;strokeColor=#6c8ebf;" parent="1" vertex="1">
          <mxGeometry x="340" y="1263.5" width="120" height="50" as="geometry" />
        </mxCell>
        <mxCell id="BJzAc4cjyfCp3c0G5clE-66" value="Ya" style="text;html=1;strokeColor=none;fillColor=none;align=center;verticalAlign=middle;whiteSpace=wrap;rounded=0;" parent="1" vertex="1">
          <mxGeometry x="230" y="356.5" width="60" height="30" as="geometry" />
        </mxCell>
        <mxCell id="rLvdwhub5j6UC8NWTQB4-1" value="Tidak" style="text;html=1;strokeColor=none;fillColor=none;align=center;verticalAlign=middle;whiteSpace=wrap;rounded=0;" parent="1" vertex="1">
          <mxGeometry x="525" y="870" width="60" height="30" as="geometry" />
        </mxCell>
      </root>
    </mxGraphModel>
  </diagram>
</mxfile>
